{"title":"schatz.es.tut.gar.nicht.weh.103","uid":6758745,"size":734746624,"categoryP":"porn","categoryS":"movie_clips","magnet":"?xt=urn:btih:98936200bc47d5c744d53413abc0b5de87f8e0b3&amp;dn=schatz.es.tut.gar.nicht.weh.103&amp;tr=udp%3A%2F%2Ftracker.openbittorrent.com%3A80&amp;tr=udp%3A%2F%2Fopen.demonii.com%3A1337&amp;tr=udp%3A%2F%2Ftracker.coppersurfer.tk%3A6969&amp;tr=udp%3A%2F%2Fexodus.desync.com%3A6969","seeders":0,"leechers":1,"uploader":null,"files":1,"time":1319127653,"description":"Screenshots: Opens the link, wait 5 seconds and top right press &quot;Skip ad&quot;\n\n\n\n\n\n\n\nGeneral\nFull name: H: \\ schatz.es.tut.gar.nicht.weh.103.avi\nFormat: AVI\nFormat / Info: Audio Video Interleave\nFile size: 701 MiB\nDuration: 1h 32mn\nTotal BitRate: 1 062 Kbps\nRecorder application: VirtualDubMod 1.5.10.2 (build 2540/release)\nWriting library: VirtualDubMod build 2540/release\n\nVideo\nFormat: MPEG-4 Visual\nFormat profile: Streaming Video @ L1\nFormat settings, BVOP: Yes\nFormat settings, QPel: No\nFormat settings, GMC: No warppoints\nFormat settings, Matrix: Default\nCodec ID: XVID\nCodec ID / Hint: XviD\nDuration: 1h 32mn\nData transfer rate: 925 Kbps\nWidth: 576 pixels\nHeight: 320 pixels\nRatio: 16 / 9\nFrame rate: 25,000 fps\nResolution: 24 bits\nColorimetry: 4:2:0\nScan type: Continuous scanning\nBits / (Pixel * Frame): 0.201\nStream size: 611 MiB (87%)\nWriting library: XviD 50\n\nAudio\nFormat: MPEG Audio\nFormat version: Version 1\nFormat profile: Layer 3\nCodec ID: 55\nCodec ID / Hint: MP3\nDuration: 1h 32mn\nBit rate mode: Constant\nData transfer rate: 32,0 Kbps\nChannel (s): 2 channels\nSampling rate: 48,0 KHz\nResolution: 16 bits\nStream size: 81,6 MiB (12%)\nAlignment: Aligned on interleaves\nInterleave, duration: 24 ms (0,60 video frame)\nInterleave, preload duration: 504 ms","torrent":{"xt":"urn:btih:98936200bc47d5c744d53413abc0b5de87f8e0b3","amp;dn":"schatz.es.tut.gar.nicht.weh.103","amp;tr":["udp%3A%2F%2Ftracker.openbittorrent.com%3A80","udp%3A%2F%2Fopen.demonii.com%3A1337","udp%3A%2F%2Ftracker.coppersurfer.tk%3A6969","udp%3A%2F%2Fexodus.desync.com%3A6969"],"infoHash":"98936200bc47d5c744d53413abc0b5de87f8e0b3","infoHashBuffer":{"type":"Buffer","data":[152,147,98,0,188,71,213,199,68,213,52,19,171,192,181,222,135,248,224,179]},"announce":[],"urlList":[]}}